HIERARCHY
ROOT hip
{
	OFFSET 0.000000 0.000000 0.000000 
	CHANNELS 6 Xposition Yposition Zposition Xrotation Zrotation Yrotation
	JOINT abdomen
	{
		OFFSET 0.000000 3.402643 0.000000 
		CHANNELS 3 Xrotation Zrotation Yrotation
		JOINT chest
		{
			OFFSET 0.000000 8.438565 -0.680529 
			CHANNELS 3 Xrotation Zrotation Yrotation
			JOINT neck
			{
				OFFSET 0.000000 10.207942 -0.272212 
				CHANNELS 3 Xrotation Zrotation Yrotation
				JOINT head
				{
					OFFSET 0.000000 3.130431 0.000000 
					CHANNELS 3 Xrotation Zrotation Yrotation
					End Site
					{
						OFFSET 0.000000 3.130435 0.000000 
					}
				}
			}
			JOINT lCollar
			{
				OFFSET 3.470700 6.669187 -0.816635 
				CHANNELS 3 Yrotation Zrotation Xrotation
				JOINT lShldr
				{
					OFFSET 3.198488 0.000000 0.000000 
					CHANNELS 3 Zrotation Yrotation Xrotation
					JOINT lForeArm
					{
						OFFSET 10.139888 0.000000 0.000000 
						CHANNELS 3 Yrotation Zrotation Xrotation
						JOINT lHand
						{
							OFFSET 8.370511 0.000000 0.000000 
							CHANNELS 3 Zrotation Yrotation Xrotation
							End Site
							{
								OFFSET 4.083176 0.000000 0.000000 
							}
						}
					}
				}
			}
			JOINT rCollar
			{
				OFFSET -3.470700 6.669187 -0.816635 
				CHANNELS 3 Yrotation Zrotation Xrotation
				JOINT rShldr
				{
					OFFSET -3.198488 0.000000 0.000000 
					CHANNELS 3 Zrotation Yrotation Xrotation
					JOINT rForeArm
					{
						OFFSET -10.139888 0.000000 0.000000 
						CHANNELS 3 Yrotation Zrotation Xrotation
						JOINT rHand
						{
							OFFSET -8.370511 0.000000 0.000000 
							CHANNELS 3 Zrotation Yrotation Xrotation
							End Site
							{
								OFFSET -4.083176 0.000000 0.000000 
							}
						}
					}
				}
			}
		}
	}
	JOINT lThigh
	{
		OFFSET 5.308129 -1.633274 1.361059 
		CHANNELS 3 Xrotation Zrotation Yrotation
		JOINT lShin
		{
			OFFSET -2.041588 -20.007561 0.000000 
			CHANNELS 3 Xrotation Zrotation Yrotation
			JOINT lFoot
			{
				OFFSET 0.000000 -19.190928 -1.224953 
				CHANNELS 3 Xrotation Yrotation Zrotation
				End Site
				{
					OFFSET 0.000000 -2.449906 4.627600 
				}
			}
		}
	}
	JOINT rThigh
	{
		OFFSET -5.308129 -1.633274 1.361059 
		CHANNELS 3 Xrotation Zrotation Yrotation
		JOINT rShin
		{
			OFFSET 2.041588 -20.007561 0.000000 
			CHANNELS 3 Xrotation Zrotation Yrotation
			JOINT rFoot
			{
				OFFSET 0.000000 -19.190928 -1.224953 
				CHANNELS 3 Xrotation Yrotation Zrotation
				End Site
				{
					OFFSET 0.000000 -2.449906 4.627600 
				}
			}
		}
	}
}
MOTION
Frames: 8
Frame Time: 0.011111
3.665460 44.891991 -17.454023 -2.921336 2.851505 -2.374839 14.028642 -4.939786 23.767702 -22.533020 -10.848693 6.884377 -5.096396 -10.154042 -7.296061 68.531593 -3.200710 -18.679596 -4.964193 1.117081 0.544158 -58.039948 -10.317395 43.137058 -54.859470 8.649899 10.164315 8.524705 12.647240 -25.833385 10.412127 0.790339 -0.849798 84.820496 77.848961 51.265690 113.091705 -11.457707 46.469955 -8.534408 -12.637552 105.658058 -36.797207 11.153171 -23.201977 18.223459 -5.846357 -3.296004 9.151031 -3.603482 -2.201763 -12.167830 -13.982018 -34.636086 69.373749 1.601553 8.831098 -62.712612 -6.421041 -19.167057 
3.667654 44.891991 -17.452143 -2.853719 3.046934 -2.234352 13.963199 -5.203506 23.729275 -22.562559 -10.874718 6.898898 -5.062539 -10.319974 -7.347383 68.506119 -2.886776 -18.588642 -4.964193 1.117081 0.544158 -58.027798 -10.237885 43.003094 -54.795742 8.637835 10.133583 8.524705 12.647240 -25.940811 10.412127 0.790339 -0.849798 84.383820 77.952026 50.779705 113.265198 -11.451967 46.543427 -8.534408 -12.637552 105.755722 -36.788666 10.908806 -23.053188 18.171740 -5.845754 -3.309978 9.225328 -3.740436 -2.157973 -12.245916 -14.292512 -34.805454 69.412720 1.611314 8.840423 -62.597202 -6.607982 -19.232876 
3.673294 44.895126 -17.442116 -2.795884 3.287593 -2.154852 13.907158 -5.481575 23.598679 -22.503918 -10.715534 6.882523 -5.085261 -10.563721 -7.302068 68.364601 -2.781562 -18.461275 -4.964193 1.117081 0.544158 -58.275249 -10.289156 42.626873 -54.689819 8.619810 10.090116 8.524705 12.647240 -26.097057 10.412127 0.790339 -0.849798 82.789299 77.712074 49.230206 113.318863 -11.451767 46.566711 -8.534408 -12.637552 105.853378 -36.775795 10.634863 -23.003273 18.175161 -5.837583 -3.280581 9.184382 -3.803031 -2.167473 -12.304372 -14.671149 -34.944710 69.441742 1.601690 8.845813 -62.518120 -6.481251 -19.029394 
3.673608 44.894501 -17.431149 -2.805124 3.110224 -2.176093 13.968860 -5.257344 23.619427 -22.513969 -10.645510 6.866634 -5.047339 -10.760183 -7.254905 68.225479 -2.786238 -18.390179 -4.964193 1.117081 0.544158 -58.487953 -10.190327 42.422745 -54.636864 8.610700 10.067695 8.524705 12.647240 -26.106823 10.412127 0.790339 -0.849798 81.632133 77.365540 48.059689 113.307899 -11.452946 46.566147 -8.534408 -12.637552 105.872902 -36.835293 10.810618 -23.054480 18.223536 -5.847111 -3.286339 9.141042 -3.899503 -2.156412 -12.196770 -14.474465 -35.007912 69.422211 1.601653 8.844349 -62.523033 -6.438917 -19.003578 
3.678307 44.891369 -17.422062 -2.755693 2.887727 -2.162666 13.995915 -4.939016 23.654972 -22.592499 -10.733291 6.859067 -5.125449 -10.805416 -7.203231 68.251839 -2.918795 -18.397650 -4.964193 1.117081 0.544158 -58.531212 -9.929422 42.513062 -54.742783 8.628854 10.111102 8.524705 12.647240 -26.009167 10.412127 0.790339 -0.849798 81.068489 77.048416 47.368019 113.341011 -11.449999 46.579533 -8.534408 -12.637552 105.872902 -36.977001 11.016050 -23.096710 18.243965 -5.847407 -3.288141 9.154852 -3.941971 -2.148192 -12.167472 -14.259728 -35.113934 69.412720 1.611318 8.840424 -62.448719 -6.803954 -19.315102 
3.694288 44.899513 -17.403576 -2.560863 3.084799 -2.063526 13.766985 -5.136482 23.586044 -22.690935 -10.789721 6.865870 -5.195161 -10.852024 -7.182999 68.392593 -2.924994 -18.394869 -4.964193 1.117081 0.544158 -58.451065 -9.637976 42.728664 -54.911213 8.653127 10.177494 8.524705 12.647240 -25.999401 10.412127 0.790339 -0.849798 81.010536 76.975594 47.126919 113.352203 -11.449411 46.589844 -8.534408 -12.637552 105.960793 -37.145039 10.752307 -23.052118 18.328506 -5.839232 -3.294008 9.112397 -4.024617 -2.163599 -12.304596 -14.606052 -35.297527 69.373413 1.601589 8.840706 -62.254169 -6.895897 -19.241524 
3.719042 44.915180 -17.394175 -2.317775 3.529993 -1.892054 13.416245 -5.608315 23.445074 -22.730444 -10.785272 6.882945 -5.131369 -11.013917 -7.231992 68.493607 -2.693158 -18.374828 -4.964193 1.117081 0.544158 -58.453838 -9.500953 42.642914 -54.859470 8.649899 10.164315 8.524705 12.647240 -26.224010 10.412127 0.790339 -0.849798 81.250793 77.079254 47.272221 113.394691 -11.449699 46.602802 -8.534408 -12.637552 105.999855 -37.235344 10.205023 -22.845095 18.280033 -5.830069 -3.288280 9.057545 -4.248892 -2.150419 -12.539060 -15.369217 -35.642845 69.373413 1.601585 8.840702 -61.884048 -7.146080 -19.154785 
3.650733 44.949959 -17.369106 -2.901212 2.544165 -2.280047 14.070980 -4.670206 24.021057 -22.710569 -10.886600 6.935595 -5.183346 -11.090097 -7.242942 68.472069 -2.639953 -18.395132 -4.964193 1.117081 0.544158 -58.613071 -9.564088 42.183540 -54.753544 8.632028 10.120777 8.524705 12.647240 -26.341198 10.412127 0.790339 -0.849798 80.719894 77.034355 46.675438 113.514854 -11.443761 46.660572 -8.534408 -12.637552 105.999855 -36.719353 11.494691 -22.877197 18.195690 -5.834609 -3.311091 8.956057 -4.489627 -2.133662 -11.679339 -13.830973 -35.387024 69.061768 1.640626 8.814630 -62.116234 -7.295757 -19.553043 
